<?xml version="1.0" encoding="UTF-8" standalone="no"?>
<svg
   width="640"
   height="1136"
   viewBox="0 0 640 1136"
   version="1.1"
   xml:space="preserve"
   style="clip-rule:evenodd;fill-rule:evenodd;stroke-linejoin:round;stroke-miterlimit:1.41421"
   id="svg6"
   sodipodi:docname="splash.svg"
   inkscape:version="1.1.2 (0a00cf5339, 2022-02-04)"
   inkscape:export-filename="/media/alex/bame/projects/AddisMapTransit/artwork/splash.png"
   inkscape:export-xdpi="169.69014"
   inkscape:export-ydpi="169.69014"
   xmlns:inkscape="http://www.inkscape.org/namespaces/inkscape"
   xmlns:sodipodi="http://sodipodi.sourceforge.net/DTD/sodipodi-0.dtd"
   xmlns="http://www.w3.org/2000/svg"
   xmlns:svg="http://www.w3.org/2000/svg"
   xmlns:rdf="http://www.w3.org/1999/02/22-rdf-syntax-ns#"
   xmlns:cc="http://creativecommons.org/ns#"
   xmlns:dc="http://purl.org/dc/elements/1.1/"><metadata
   id="metadata12"><rdf:RDF><cc:Work
       rdf:about=""><dc:format>image/svg+xml</dc:format><dc:type
         rdf:resource="http://purl.org/dc/dcmitype/StillImage" /></cc:Work></rdf:RDF></metadata><defs
   id="defs10">
        
    <clipPath
   clipPathUnits="userSpaceOnUse"
   id="clipPath2323"><g
     id="g2339"
     transform="matrix(1.9725783,0,0,1.9725783,-831.86518,-225.67581)"><text
   xml:space="preserve"
   style="font-style:normal;font-variant:normal;font-weight:normal;font-stretch:normal;font-size:69.3318px;line-height:125%;font-family:'DejaVu Sans';-inkscape-font-specification:'DejaVu Sans, Normal';text-align:start;letter-spacing:5.54652px;word-spacing:0px;writing-mode:lr-tb;text-anchor:start;fill:#000000;fill-opacity:1;stroke:none;stroke-width:5.54652px;stroke-linecap:butt;stroke-linejoin:miter;stroke-opacity:1"
   x="-17.710886"
   y="134.71294"
   id="text2331"
   transform="rotate(-5.9221754)"><tspan
     sodipodi:role="line"
     id="tspan2327"
     x="-17.710886"
     y="134.71294"
     style="font-style:italic;font-variant:normal;font-weight:bold;font-stretch:normal;font-family:'Century Schoolbook L';-inkscape-font-specification:'Century Schoolbook L Bold Italic';fill:#ffffff;stroke-width:5.54652px">      <tspan
   style="letter-spacing:0px;stroke-width:5.54652px"
   id="tspan2325">አዲስ</tspan></tspan><tspan
     sodipodi:role="line"
     x="-17.710886"
     y="223.02541"
     id="tspan2329" /></text>









<text
   transform="rotate(-5.9221754)"
   id="text2337"
   y="143.61668"
   x="18.137619"
   style="font-style:normal;font-variant:normal;font-weight:normal;font-stretch:normal;font-size:38.1674px;line-height:125%;font-family:'DejaVu Sans';-inkscape-font-specification:'DejaVu Sans, Normal';text-align:start;letter-spacing:3.05339px;word-spacing:0px;writing-mode:lr-tb;text-anchor:start;fill:#000000;fill-opacity:1;stroke:none;stroke-width:3.05339px;stroke-linecap:butt;stroke-linejoin:miter;stroke-opacity:1"
   xml:space="preserve"><tspan
     style="font-style:normal;font-variant:normal;font-weight:normal;font-stretch:normal;font-family:'Century Schoolbook L';-inkscape-font-specification:'Century Schoolbook L';fill:#ffffff;stroke-width:3.05339px"
     y="143.61668"
     x="18.137619"
     id="tspan2333"
     sodipodi:role="line">      </tspan><tspan
     style="font-style:italic;font-variant:normal;font-weight:bold;font-stretch:normal;line-height:95.4%;font-family:'Century Schoolbook L';-inkscape-font-specification:'Century Schoolbook L Bold Italic';letter-spacing:0.414715px;fill:#ffffff;stroke-width:3.05339px"
     id="tspan2335"
     y="192.19484"
     x="18.137619"
     sodipodi:role="line">TRANSPORT</tspan></text>









</g></clipPath>

<clipPath
   clipPathUnits="userSpaceOnUse"
   id="clipPath6271-3"><rect
     style="color:#000000;clip-rule:nonzero;display:inline;overflow:visible;visibility:visible;opacity:1;isolation:auto;mix-blend-mode:normal;color-interpolation:sRGB;color-interpolation-filters:linearRGB;solid-color:#000000;solid-opacity:1;fill:#f1c40f;fill-opacity:0.8;fill-rule:nonzero;stroke:#800000;stroke-width:25.5045;stroke-linecap:butt;stroke-linejoin:miter;stroke-miterlimit:10;stroke-dasharray:none;stroke-dashoffset:0;stroke-opacity:0.8;marker:none;color-rendering:auto;image-rendering:auto;shape-rendering:auto;text-rendering:auto;enable-background:accumulate"
     id="rect6273-6"
     width="345.87305"
     height="262.26746"
     x="2708.7776"
     y="597.10229"
     ry="0"
     transform="matrix(0.94332817,0.33186135,-0.93713724,0.34896102,0,0)" /></clipPath><clipPath
   clipPathUnits="userSpaceOnUse"
   id="clipPath6271-3-8"><rect
     style="color:#000000;clip-rule:nonzero;display:inline;overflow:visible;visibility:visible;opacity:1;isolation:auto;mix-blend-mode:normal;color-interpolation:sRGB;color-interpolation-filters:linearRGB;solid-color:#000000;solid-opacity:1;fill:#f1c40f;fill-opacity:0.8;fill-rule:nonzero;stroke:#800000;stroke-width:25.5045;stroke-linecap:butt;stroke-linejoin:miter;stroke-miterlimit:10;stroke-dasharray:none;stroke-dashoffset:0;stroke-opacity:0.8;marker:none;color-rendering:auto;image-rendering:auto;shape-rendering:auto;text-rendering:auto;enable-background:accumulate"
     id="rect6273-6-2"
     width="345.87305"
     height="262.26746"
     x="2708.7776"
     y="597.10229"
     ry="0"
     transform="matrix(0.94332817,0.33186135,-0.93713724,0.34896102,0,0)" /></clipPath>

<clipPath
   clipPathUnits="userSpaceOnUse"
   id="clipPath1037"><path
     sodipodi:nodetypes="cssscc"
     inkscape:connector-curvature="0"
     id="path1039"
     d="m 2198.0619,1141.3442 c -2.1848,6.2105 -4.5904,12.2634 -7.2003,18.1487 -7.2391,16.3239 -16.0506,31.3582 -26.0857,44.8878 -46.207,62.297 -118.3576,92.6899 -182.4089,70.1567 -60.7081,-21.3571 -97.321,-84.3425 -98.4441,-156.8514 z"
     style="color:#000000;clip-rule:nonzero;display:inline;overflow:visible;visibility:visible;opacity:1;isolation:auto;mix-blend-mode:normal;color-interpolation:sRGB;color-interpolation-filters:linearRGB;solid-color:#000000;solid-opacity:1;vector-effect:none;fill:#ff0000;fill-opacity:1;fill-rule:evenodd;stroke:#2c3e50;stroke-width:2.37735;stroke-linecap:butt;stroke-linejoin:miter;stroke-miterlimit:4;stroke-dasharray:none;stroke-dashoffset:0;stroke-opacity:1;marker:none;paint-order:markers stroke fill;color-rendering:auto;image-rendering:auto;shape-rendering:auto;text-rendering:auto;enable-background:accumulate" /></clipPath>























<linearGradient
   id="linearGradient4294"
   inkscape:swatch="solid"><stop
     style="stop-color:#000000;stop-opacity:1;"
     offset="0"
     id="stop4296" /></linearGradient><linearGradient
   id="linearGradient2542"><stop
     style="stop-color:#106600;stop-opacity:1;"
     offset="0"
     id="stop2544" /><stop
     id="stop2546"
     offset="0.4696297"
     style="stop-color:#f8ff00;stop-opacity:0.81176472;" /><stop
     id="stop2548"
     offset="1"
     style="stop-color:#ff0019;stop-opacity:0.62352943;" /></linearGradient><clipPath
   clipPathUnits="userSpaceOnUse"
   id="clipPath4525"><path
     style="color:#000000;font-style:normal;font-variant:normal;font-weight:bold;font-stretch:normal;font-size:132.688px;line-height:125%;font-family:Arial;-inkscape-font-specification:'Arial, Bold';text-indent:0;text-align:start;text-decoration:none;text-decoration-line:none;text-decoration-style:solid;text-decoration-color:#000000;letter-spacing:7.05px;word-spacing:0px;text-transform:none;writing-mode:lr-tb;direction:ltr;baseline-shift:baseline;text-anchor:start;white-space:normal;clip-rule:nonzero;display:inline;overflow:visible;visibility:visible;opacity:1;isolation:auto;mix-blend-mode:normal;color-interpolation:sRGB;color-interpolation-filters:linearRGB;solid-color:#000000;solid-opacity:1;fill:#000000;fill-opacity:1;fill-rule:nonzero;stroke:none;stroke-width:8;stroke-linecap:butt;stroke-linejoin:miter;stroke-miterlimit:4;stroke-dasharray:none;stroke-dashoffset:0;stroke-opacity:1;color-rendering:auto;image-rendering:auto;shape-rendering:auto;text-rendering:auto;enable-background:accumulate"
     d="m -501.56151,573.24052 c -5.11337,0 -10.62646,1.01789 -16.81491,2.83795 -6.38063,1.87667 -12.80775,4.69556 -19.29925,8.39209 -6.77471,3.85779 -13.01937,8.86087 -18.70675,14.9153 l -0.13227,0.14005 -0.12449,0.14783 c -6.09878,7.17502 -10.74765,14.30706 -13.82505,21.51806 -5.8e-4,0.001 0,0 0,0 -2.84962,6.59576 -4.88326,12.79724 -6.02544,18.68769 -9.8e-4,0 0,0.0195 0,0.0195 -5.9e-4,0 3.8e-4,0 0,0 -1.14841,5.84727 -1.65259,12.70406 -1.65259,20.76218 0,2.97703 0.78972,5.94452 2.15404,8.53642 1.79906,3.41857 5.06863,5.92838 8.4378,7.19175 2.68157,1.00563 5.43082,1.62982 8.27811,1.62982 h 42.41309 l 0.56604,-0.0836 c 3.20247,-0.47441 3.48646,0.1206 3.31295,-0.0525 -0.17312,-0.17312 0.6417,0.73584 0.38747,4.42207 l -0.0195,0.26979 v 60.75883 c 0,4.45494 0.78642,8.71537 2.81131,12.49535 2.00387,3.7405 5.0943,6.73756 8.74941,9.11393 2.46196,1.63917 4.7967,2.92918 7.67025,3.60531 2.95135,0.69441 5.63175,0.71056 9.72198,0.71056 6.34951,0 14.64376,-1.09745 25.62872,-3.15715 l 26.30484,-4.93111 -24.84599,-9.93848 c -2.09161,-0.8366 -4.063,-1.84068 -5.93053,-3.01651 -1.53101,-0.96401 -2.66911,-2.02411 -3.59013,-3.25207 -0.70297,-0.93737 -0.71426,-1.24081 -0.71426,-1.62983 v -73.93032 l -0.17506,-0.81676 c -1.10561,-5.08614 -3.51661,-9.83674 -7.5868,-13.03474 -4.07001,-3.1978 -9.30067,-4.3999 -14.47064,-4.17523 h 0.33806 -31.12975 c -4.37908,-0.98521 -5.99296,-2.33358 -7.10052,-4.8893 -1.14296,-2.6374 -1.49601,-7.8103 0.37988,-15.46616 5.07389,-15.62391 12.65194,-23.67151 23.619,-27.07608 15.23722,-0.4009 26.92204,2.38065 35.79497,7.65897 3.08537,23.18542 16.80052,40.07601 38.77355,46.45527 l 15.02539,4.36139 -5.58838,-14.61147 c -8.47164,-22.15645 -10.57297,-38.37246 -8.30106,-47.20746 l 1.61466,-6.27987 -5.8887,-2.72008 c -13.45295,-6.20907 -26.06637,-10.83479 -37.89591,-13.83633 -11.73208,-2.97684 -22.41807,-4.52477 -32.15542,-4.52477 z m -240.42183,1.0105 v 69.62612 l 16.42725,-3.16085 c -9.91163,17.83359 -15.37494,40.90698 -16.91743,68.92684 l -0.0195,0.2128 v 9.79026 c 0,13.08259 1.38124,23.18834 5.58468,31.02724 3.40476,6.34951 6.67493,11.12365 11.54165,14.28838 2.45379,1.63197 4.7827,2.91984 7.6475,3.59383 2.95135,0.69442 5.63175,0.71056 9.72198,0.71056 6.3495,0 14.64376,-1.09744 25.62852,-3.15715 l 26.30504,-4.93111 -24.84619,-9.93848 c -2.09141,-0.8366 -4.0628,-1.84068 -5.93033,-3.01651 -1.04162,-0.6559 -3.47187,-2.7938 -6.38996,-6.24953 -2.55688,-3.02779 -4.38628,-6.32227 -5.59616,-10.0865 -1.248,-3.88287 -1.89573,-8.09468 -1.89573,-12.74219 0,-3.96399 0.58957,-9.2355 1.86539,-15.61438 v -0.0233 -0.0272 c 1.78894,-9.2427 5.1904,-16.09502 10.04876,-21.25197 7.65411,-7.608 17.24654,-10.73092 31.19433,-9.2888 4.83133,0.70959 7.40319,2.49678 9.88888,7.22579 2.503,4.76169 4.18087,12.90909 4.02331,24.24962 v 0.0564 38.86847 c 0,4.45494 0.79012,8.71537 2.815,12.49535 2.00466,3.74205 5.09606,6.74087 8.75311,9.11782 2.45924,1.63664 4.79223,2.92607 7.66286,3.60142 2.95116,0.69442 5.63156,0.71056 9.72179,0.71056 6.3495,0 14.64765,-1.09745 25.6326,-3.15715 l 26.30096,-4.93111 -24.846,-9.93848 c -2.09141,-0.8366 -4.0591,-1.84068 -5.92663,-3.01651 -1.53101,-0.96401 -2.673,-2.02411 -3.59383,-3.25207 -0.70317,-0.93736 -0.71056,-1.24081 -0.71056,-1.62983 v -46.33371 l -0.0564,-0.45963 c -1.8401,-15.45702 -7.61909,-28.46239 -17.5175,-37.76675 -9.8984,-9.30456 -23.46222,-14.62061 -39.75759,-16.43114 l -0.22038,-0.0234 -0.22408,-0.0195 c -12.18881,-0.65298 -23.53147,1.47617 -33.96382,5.72901 2.16727,-3.23145 4.73777,-6.62688 8.08437,-10.30688 l 20.53032,-14.37202 -10.20048,-15.30277 -18.42179,4.09548 v -37.90369 h -52.35916 z"
     id="path4527"
     inkscape:connector-curvature="0"
     sodipodi:nodetypes="ccsccccccccsccscccccsccsscccccsccscccscccccccccscccccccssccscccccssccccccccscccscccccsccsccccccccccc" /></clipPath><clipPath
   clipPathUnits="userSpaceOnUse"
   id="clipPath5075"><path
     style="display:inline;overflow:visible;visibility:visible;fill:none;stroke:#000000;stroke-width:5.15042;stroke-linecap:butt;stroke-linejoin:miter;stroke-miterlimit:0;stroke-dasharray:none;stroke-dashoffset:0;stroke-opacity:1;marker:none;enable-background:accumulate"
     d="m 1043.2886,597.00719 125.0266,-3.33546 c 47.4451,-1.26574 86.5299,31.01738 87.6334,72.38368 l 2.7694,103.80743 c 1.1036,41.36604 -36.2043,75.68746 -83.6494,76.9532 l -45.2471,1.20711 -15.5848,63.48179 -17.2206,-62.60661 -46.9741,1.25317 c -47.4452,1.26575 -86.52993,-31.01767 -87.63349,-72.38371 l -2.76938,-103.80743 c -1.10357,-41.3663 36.20425,-75.68742 83.64947,-76.95317 z"
     id="path5077"
     sodipodi:nodetypes="cccccccccccc"
     inkscape:export-filename="/tmp/cc.png"
     inkscape:export-xdpi="21.99"
     inkscape:export-ydpi="21.99"
     inkscape:connector-curvature="0" /></clipPath><clipPath
   clipPathUnits="userSpaceOnUse"
   id="clipPath5918"><path
     inkscape:connector-curvature="0"
     inkscape:export-ydpi="21.99"
     inkscape:export-xdpi="21.99"
     inkscape:export-filename="/tmp/cc.png"
     sodipodi:nodetypes="cccccccccccc"
     id="path5920"
     d="m 1054.7577,612.16112 110.991,-2.96102 c 42.1188,-1.12364 76.8036,27.0799 77.7682,63.23663 l 2.4206,90.73419 c 0.9646,36.1565 -32.1671,66.16951 -74.2859,67.29316 l -40.1677,1.07159 -13.8581,55.49337 -15.2644,-54.71644 -41.7008,1.1125 c -42.1189,1.12365 -76.80366,-27.08015 -77.76825,-63.23666 l -2.42061,-90.73418 c -0.96459,-36.15674 32.16706,-66.16949 74.28596,-67.29314 z"
     style="display:inline;overflow:visible;visibility:visible;fill:none;stroke:#000000;stroke-width:4.53687;stroke-linecap:butt;stroke-linejoin:miter;stroke-miterlimit:0;stroke-dasharray:none;stroke-dashoffset:0;stroke-opacity:1;marker:none;enable-background:accumulate" /></clipPath><clipPath
   clipPathUnits="userSpaceOnUse"
   id="clipPath6243"><path
     inkscape:connector-curvature="0"
     inkscape:export-ydpi="21.99"
     inkscape:export-xdpi="21.99"
     inkscape:export-filename="/tmp/cc.png"
     sodipodi:nodetypes="cccccccccccc"
     id="path6245"
     d="m 1967.0538,1098.3526 h 125.0711 c 47.462,0 85.672,33.314 85.6719,74.695 v 103.8443 c 10e-5,41.3808 -38.2099,74.6951 -85.6719,74.6951 h -45.2632 l -17.2722,63.0436 -15.5448,-63.0436 h -46.9908 c -47.4621,0 -85.672,-33.3143 -85.672,-74.6951 v -103.8443 c 0,-41.381 38.2098,-74.695 85.6719,-74.695 z"
     style="display:inline;overflow:visible;visibility:visible;fill:none;stroke:#000000;stroke-width:5.15042;stroke-linecap:butt;stroke-linejoin:miter;stroke-miterlimit:0;stroke-dasharray:none;stroke-dashoffset:0;stroke-opacity:1;marker:none;enable-background:accumulate" /></clipPath><clipPath
   clipPathUnits="userSpaceOnUse"
   id="clipPath6271"><rect
     style="color:#000000;clip-rule:nonzero;display:inline;overflow:visible;visibility:visible;opacity:1;isolation:auto;mix-blend-mode:normal;color-interpolation:sRGB;color-interpolation-filters:linearRGB;solid-color:#000000;solid-opacity:1;fill:#f1c40f;fill-opacity:0.8;fill-rule:nonzero;stroke:#800000;stroke-width:25.5045;stroke-linecap:butt;stroke-linejoin:miter;stroke-miterlimit:10;stroke-dasharray:none;stroke-dashoffset:0;stroke-opacity:0.8;marker:none;color-rendering:auto;image-rendering:auto;shape-rendering:auto;text-rendering:auto;enable-background:accumulate"
     id="rect6273"
     width="345.87305"
     height="262.26746"
     x="2708.7776"
     y="597.10229"
     ry="0"
     transform="matrix(0.94332817,0.33186135,-0.93713724,0.34896102,0,0)" /></clipPath><clipPath
   clipPathUnits="userSpaceOnUse"
   id="clipPath4489"><rect
     style="color:#000000;clip-rule:nonzero;display:inline;overflow:visible;visibility:visible;opacity:1;isolation:auto;mix-blend-mode:normal;color-interpolation:sRGB;color-interpolation-filters:linearRGB;solid-color:#000000;solid-opacity:1;fill:#f1c40f;fill-opacity:0.8;fill-rule:nonzero;stroke:#800000;stroke-width:13.6796;stroke-linecap:butt;stroke-linejoin:miter;stroke-miterlimit:10;stroke-dasharray:none;stroke-dashoffset:0;stroke-opacity:0.8;marker:none;color-rendering:auto;image-rendering:auto;shape-rendering:auto;text-rendering:auto;enable-background:accumulate"
     id="rect4491"
     width="192.7851"
     height="135.36336"
     x="924.71918"
     y="1459.3391"
     ry="0"
     transform="matrix(1,0,-0.82963361,0.55830822,0,0)" /></clipPath><clipPath
   clipPathUnits="userSpaceOnUse"
   id="clipPath2633"><g
     id="g2637"
     transform="matrix(0.37549529,0.86571765,-0.94245312,0.52891166,0,0)"><rect
       style="color:#000000;clip-rule:nonzero;display:inline;overflow:visible;visibility:visible;opacity:1;isolation:auto;mix-blend-mode:normal;color-interpolation:sRGB;color-interpolation-filters:linearRGB;solid-color:#000000;solid-opacity:1;fill:#f1c40f;fill-opacity:0.8;fill-rule:nonzero;stroke:#800000;stroke-width:10.3672;stroke-linecap:butt;stroke-linejoin:miter;stroke-miterlimit:10;stroke-dasharray:none;stroke-dashoffset:0;stroke-opacity:0.8;marker:none;color-rendering:auto;image-rendering:auto;shape-rendering:auto;text-rendering:auto;enable-background:accumulate"
       id="rect2635"
       width="146.10326"
       height="102.58587"
       x="721.82355"
       y="722.18445"
       ry="0"
       transform="matrix(1,0,-0.82963362,0.55830821,0,0)" /></g></clipPath><clipPath
   clipPathUnits="userSpaceOnUse"
   id="clipPath2639"><g
     id="g2643"
     transform="matrix(0.37549529,0.86571765,-0.94245312,0.52891166,0,0)"><rect
       style="color:#000000;clip-rule:nonzero;display:inline;overflow:visible;visibility:visible;opacity:1;isolation:auto;mix-blend-mode:normal;color-interpolation:sRGB;color-interpolation-filters:linearRGB;solid-color:#000000;solid-opacity:1;fill:#f1c40f;fill-opacity:0.8;fill-rule:nonzero;stroke:#800000;stroke-width:10.3672;stroke-linecap:butt;stroke-linejoin:miter;stroke-miterlimit:10;stroke-dasharray:none;stroke-dashoffset:0;stroke-opacity:0.8;marker:none;color-rendering:auto;image-rendering:auto;shape-rendering:auto;text-rendering:auto;enable-background:accumulate"
       id="rect2641"
       width="146.10326"
       height="102.58587"
       x="721.82355"
       y="722.18445"
       ry="0"
       transform="matrix(1,0,-0.82963362,0.55830821,0,0)" /></g></clipPath><clipPath
   clipPathUnits="userSpaceOnUse"
   id="clipPath2645"><g
     id="g2649"
     transform="matrix(-0.87134125,0.36698538,-0.51870884,-0.94531273,0,0)"><rect
       style="color:#000000;clip-rule:nonzero;display:inline;overflow:visible;visibility:visible;opacity:1;isolation:auto;mix-blend-mode:normal;color-interpolation:sRGB;color-interpolation-filters:linearRGB;solid-color:#000000;solid-opacity:1;fill:#f1c40f;fill-opacity:0.8;fill-rule:nonzero;stroke:#800000;stroke-width:10.3672;stroke-linecap:butt;stroke-linejoin:miter;stroke-miterlimit:10;stroke-dasharray:none;stroke-dashoffset:0;stroke-opacity:0.8;marker:none;color-rendering:auto;image-rendering:auto;shape-rendering:auto;text-rendering:auto;enable-background:accumulate"
       id="rect2647"
       width="146.10326"
       height="102.58587"
       x="721.82355"
       y="722.18445"
       ry="0"
       transform="matrix(1,0,-0.82963362,0.55830821,0,0)" /></g></clipPath><clipPath
   clipPathUnits="userSpaceOnUse"
   id="clipPath2651"><g
     id="g2655"
     transform="matrix(-0.87437033,0.36696251,-0.51066792,-0.94373921,0,0)"><rect
       style="color:#000000;clip-rule:nonzero;display:inline;overflow:visible;visibility:visible;opacity:1;isolation:auto;mix-blend-mode:normal;color-interpolation:sRGB;color-interpolation-filters:linearRGB;solid-color:#000000;solid-opacity:1;fill:#f1c40f;fill-opacity:0.8;fill-rule:nonzero;stroke:#800000;stroke-width:10.3672;stroke-linecap:butt;stroke-linejoin:miter;stroke-miterlimit:10;stroke-dasharray:none;stroke-dashoffset:0;stroke-opacity:0.8;marker:none;color-rendering:auto;image-rendering:auto;shape-rendering:auto;text-rendering:auto;enable-background:accumulate"
       id="rect2653"
       width="146.10326"
       height="102.58587"
       x="721.82355"
       y="722.18445"
       ry="0"
       transform="matrix(1,0,-0.82963362,0.55830821,0,0)" /></g></clipPath><clipPath
   clipPathUnits="userSpaceOnUse"
   id="clipPath2657"><g
     id="g2661"
     transform="matrix(-0.86516534,0.38092931,-0.5274793,-0.93895598,0,0)"><rect
       style="color:#000000;clip-rule:nonzero;display:inline;overflow:visible;visibility:visible;opacity:1;isolation:auto;mix-blend-mode:normal;color-interpolation:sRGB;color-interpolation-filters:linearRGB;solid-color:#000000;solid-opacity:1;fill:#f1c40f;fill-opacity:0.8;fill-rule:nonzero;stroke:#800000;stroke-width:10.3672;stroke-linecap:butt;stroke-linejoin:miter;stroke-miterlimit:10;stroke-dasharray:none;stroke-dashoffset:0;stroke-opacity:0.8;marker:none;color-rendering:auto;image-rendering:auto;shape-rendering:auto;text-rendering:auto;enable-background:accumulate"
       id="rect2659"
       width="146.10326"
       height="102.58587"
       x="721.82355"
       y="722.18445"
       ry="0"
       transform="matrix(1,0,-0.82963362,0.55830821,0,0)" /></g></clipPath></defs><sodipodi:namedview
   pagecolor="#ffffff"
   bordercolor="#666666"
   borderopacity="1"
   objecttolerance="10"
   gridtolerance="10"
   guidetolerance="10"
   inkscape:pageopacity="0"
   inkscape:pageshadow="2"
   inkscape:window-width="2560"
   inkscape:window-height="1403"
   id="namedview8"
   showgrid="false"
   inkscape:zoom="0.61458335"
   inkscape:cx="428.74575"
   inkscape:cy="536.94914"
   inkscape:window-x="0"
   inkscape:window-y="0"
   inkscape:window-maximized="1"
   inkscape:current-layer="svg6"
   inkscape:showpageshadow="2"
   inkscape:pagecheckerboard="0"
   inkscape:deskcolor="#d1d1d1" />
    


























<g
   id="g215"
   transform="matrix(0.32160654,0,0,0.32160654,84.836838,282.79349)"><g
     id="text4289"
     style="color:#000000;font-style:normal;font-variant:normal;font-weight:normal;font-stretch:normal;font-size:93.4822px;line-height:125%;font-family:'DejaVu Sans';-inkscape-font-specification:'DejaVu Sans, Normal';text-indent:0;text-align:start;text-decoration:none;text-decoration-line:none;text-decoration-style:solid;text-decoration-color:#000000;letter-spacing:9.04908px;word-spacing:0px;text-transform:none;writing-mode:lr-tb;direction:ltr;baseline-shift:baseline;text-anchor:start;white-space:normal;clip-rule:nonzero;display:inline;overflow:visible;visibility:visible;isolation:auto;mix-blend-mode:normal;color-interpolation:sRGB;color-interpolation-filters:linearRGB;solid-color:#000000;solid-opacity:1;fill:#ffffff;fill-opacity:1;fill-rule:nonzero;stroke:none;stroke-width:3.88918px;stroke-linecap:butt;stroke-linejoin:miter;stroke-miterlimit:4;stroke-dasharray:none;stroke-dashoffset:0;stroke-opacity:1;color-rendering:auto;image-rendering:auto;shape-rendering:auto;text-rendering:auto;enable-background:accumulate"
     transform="matrix(0.23173094,-0.07505045,0,0.15618561,-264.43248,365.45106)" /><circle
     inkscape:export-ydpi="1301.4609"
     inkscape:export-xdpi="1301.4609"
     r="412.88779"
     cy="735.64343"
     cx="730.19177"
     id="path926"
     style="color:#000000;clip-rule:nonzero;display:inline;overflow:visible;visibility:visible;isolation:auto;mix-blend-mode:normal;color-interpolation:sRGB;color-interpolation-filters:linearRGB;solid-color:#000000;solid-opacity:1;fill:#ffffff;fill-opacity:1;fill-rule:evenodd;stroke:#000000;stroke-width:60.0448;stroke-linecap:butt;stroke-linejoin:miter;stroke-miterlimit:4;stroke-dasharray:none;stroke-dashoffset:0;stroke-opacity:1;marker:none;paint-order:markers stroke fill;color-rendering:auto;image-rendering:auto;shape-rendering:auto;text-rendering:auto;enable-background:accumulate"
     inkscape:export-filename="launcher.png" /><path
     inkscape:export-ydpi="1432.4"
     inkscape:export-xdpi="1432.4"
     sodipodi:nodetypes="cssscc"
     inkscape:connector-curvature="0"
     id="path1035"
     d="m 1131.9842,745.80523 c 2e-4,13.35211 -0.655,26.55117 -1.9321,39.56714 -3.5451,36.10226 -11.8899,70.79538 -24.3879,103.43371 -57.547,150.28222 -203.14663,256.98842 -373.66903,256.98832 -161.622,0 -300.85516,-95.8581 -363.94757,-233.82212 z"
     style="color:#000000;clip-rule:nonzero;display:inline;overflow:visible;visibility:visible;isolation:auto;mix-blend-mode:normal;color-interpolation:sRGB;color-interpolation-filters:linearRGB;solid-color:#000000;solid-opacity:1;fill:#ffffff;fill-opacity:1;fill-rule:evenodd;stroke:#2c3e50;stroke-width:5.36557;stroke-linecap:butt;stroke-linejoin:miter;stroke-miterlimit:4;stroke-dasharray:none;stroke-dashoffset:0;stroke-opacity:1;marker:none;paint-order:markers stroke fill;color-rendering:auto;image-rendering:auto;shape-rendering:auto;text-rendering:auto;enable-background:accumulate" /><g
     inkscape:export-ydpi="1432.4"
     inkscape:export-xdpi="1432.4"
     inkscape:export-filename="/tmp/am-gojo.png"
     clip-path="url(#clipPath1037)"
     transform="matrix(2.4676334,-0.70104124,0.86811088,1.992733,-5266.9314,4.0334874)"
     id="g938"><rect
       transform="matrix(-0.69395851,-0.72001499,0.71441391,-0.69972334,0,0)"
       ry="17.981777"
       y="411.88074"
       x="-2485.9875"
       height="398.60602"
       width="171.86024"
       id="rect928"
       style="color:#000000;clip-rule:nonzero;display:inline;overflow:visible;visibility:visible;opacity:1;isolation:auto;mix-blend-mode:normal;color-interpolation:sRGB;color-interpolation-filters:linearRGB;solid-color:#000000;solid-opacity:1;fill:#e74c3c;fill-opacity:1;fill-rule:nonzero;stroke:#e74c3c;stroke-width:12.5152;stroke-linecap:butt;stroke-linejoin:miter;stroke-miterlimit:10;stroke-dasharray:none;stroke-dashoffset:0;stroke-opacity:1;marker:none;color-rendering:auto;image-rendering:auto;shape-rendering:auto;text-rendering:auto;enable-background:accumulate" /><rect
       transform="matrix(-0.70596014,-0.70825156,0.70255441,-0.71163004,0,0)"
       ry="17.974842"
       y="383.21341"
       x="-2265.3162"
       height="398.4523"
       width="177.49841"
       id="rect930"
       style="color:#000000;clip-rule:nonzero;display:inline;overflow:visible;visibility:visible;opacity:1;isolation:auto;mix-blend-mode:normal;color-interpolation:sRGB;color-interpolation-filters:linearRGB;solid-color:#000000;solid-opacity:1;fill:#27ae60;fill-opacity:1;fill-rule:nonzero;stroke:#27ae60;stroke-width:12.7164;stroke-linecap:butt;stroke-linejoin:miter;stroke-miterlimit:10;stroke-dasharray:none;stroke-dashoffset:0;stroke-opacity:1;marker:none;color-rendering:auto;image-rendering:auto;shape-rendering:auto;text-rendering:auto;enable-background:accumulate" /><rect
       transform="rotate(-134.94306)"
       ry="34.0597"
       y="295.60614"
       x="-2326.4932"
       height="600.03064"
       width="66.670067"
       id="rect932"
       style="color:#000000;clip-rule:nonzero;display:inline;overflow:visible;visibility:visible;opacity:1;isolation:auto;mix-blend-mode:normal;color-interpolation:sRGB;color-interpolation-filters:linearRGB;solid-color:#000000;solid-opacity:1;fill:#f1c40f;fill-opacity:0.8;fill-rule:nonzero;stroke:none;stroke-width:15.3446;stroke-linecap:butt;stroke-linejoin:miter;stroke-miterlimit:10;stroke-dasharray:none;stroke-dashoffset:0;stroke-opacity:0.8;marker:none;color-rendering:auto;image-rendering:auto;shape-rendering:auto;text-rendering:auto;enable-background:accumulate" /><rect
       style="color:#000000;clip-rule:nonzero;display:inline;overflow:visible;visibility:visible;opacity:1;isolation:auto;mix-blend-mode:normal;color-interpolation:sRGB;color-interpolation-filters:linearRGB;solid-color:#000000;solid-opacity:1;fill:#f1c40f;fill-opacity:0.8;fill-rule:nonzero;stroke:none;stroke-width:15.3446;stroke-linecap:butt;stroke-linejoin:miter;stroke-miterlimit:10;stroke-dasharray:none;stroke-dashoffset:0;stroke-opacity:0.8;marker:none;color-rendering:auto;image-rendering:auto;shape-rendering:auto;text-rendering:auto;enable-background:accumulate"
       id="rect934"
       width="66.670067"
       height="600.03064"
       x="641.56976"
       y="2002.027"
       ry="34.0597"
       transform="rotate(-44.357699)" /><rect
       transform="rotate(-44.357699)"
       ry="34.0597"
       y="1975.2189"
       x="484.11649"
       height="600.03064"
       width="66.670067"
       id="rect936"
       style="color:#000000;clip-rule:nonzero;display:inline;overflow:visible;visibility:visible;opacity:1;isolation:auto;mix-blend-mode:normal;color-interpolation:sRGB;color-interpolation-filters:linearRGB;solid-color:#000000;solid-opacity:1;fill:#f1c40f;fill-opacity:0.8;fill-rule:nonzero;stroke:none;stroke-width:15.3446;stroke-linecap:butt;stroke-linejoin:miter;stroke-miterlimit:10;stroke-dasharray:none;stroke-dashoffset:0;stroke-opacity:0.8;marker:none;color-rendering:auto;image-rendering:auto;shape-rendering:auto;text-rendering:auto;enable-background:accumulate" /></g><path
     sodipodi:nodetypes="ssssscssssccsssscssssssssssscc"
     d="M 531.79802,803.8029 504.64833,545.48751 c -9.50245,-90.40926 82.88511,-113.17856 198.62668,-125.34364 115.74224,-12.16455 210.84472,-9.101 220.34718,81.30778 l 27.14987,258.31545 c 2.38906,22.73093 -5.67844,44.21173 -20.15807,60.09731 l 4.83271,45.98083 c 1.49331,14.20793 -9.06953,27.06953 -23.47147,28.5838 l -26.18525,2.75222 c -14.40349,1.51337 -27.40824,-8.87175 -28.90138,-23.07914 l -2.71534,-25.83176 -209.48687,22.01838 2.71487,25.83116 c 1.49373,14.20745 -9.06785,27.06984 -23.47003,28.58302 l -26.18657,2.75264 c -14.40217,1.51367 -27.4068,-8.87132 -28.90042,-23.07931 l -4.83252,-45.98053 c -17.46747,-12.52818 -29.82463,-31.86171 -32.2137,-54.59282 z m 93.24146,17.27844 c 21.68159,-2.2787 37.34657,-21.60233 35.06979,-43.26285 -2.27624,-21.65865 -21.61656,-37.30303 -43.29815,-35.02445 -21.68249,2.27931 -37.34765,21.60233 -35.07141,43.26164 2.27678,21.66028 21.61662,37.30418 43.29977,35.02566 z m 238.12093,-25.02741 c 21.6829,-2.27912 37.34776,-21.60275 35.07122,-43.2626 -2.27654,-21.65931 -21.61644,-37.30303 -43.29965,-35.02433 -21.68141,2.27852 -37.3465,21.60221 -35.06972,43.26074 2.27678,21.66051 21.61668,37.30489 43.29815,35.02619 z M 572.70152,649.49729 c -45.99085,185.89711 -22.99548,92.94879 0,0 z"
     style="fill:#000000;fill-opacity:1;fill-rule:nonzero;stroke:none;stroke-width:6.72628;stroke-linecap:butt;stroke-linejoin:miter;stroke-miterlimit:4;stroke-dasharray:none;stroke-dashoffset:0;stroke-opacity:1;marker:none"
     id="path161"
     inkscape:connector-curvature="0" /><g
     id="g2964"
     transform="matrix(12.417068,-0.36277592,0.36277592,12.417068,-1280.7105,-637.38849)"
     style="fill:#ffffff"><g
       id="g2666"
       transform="matrix(0.13712686,0,0,0.13712686,135.99148,60.517826)"
       style="font-variation-settings:normal;opacity:1;fill:#ffffff;fill-opacity:1;stroke:none;stroke-width:1.64722;stroke-linecap:butt;stroke-linejoin:miter;stroke-miterlimit:4;stroke-dasharray:none;stroke-dashoffset:0;stroke-opacity:1;marker:none;paint-order:markers stroke fill;stop-color:#000000;stop-opacity:1"><path
         inkscape:connector-curvature="0"
         id="path4939"
         d="m 91.802285,377.30329 q -4.898463,0 -6.708763,-0.24981 -1.810297,-0.24981 -4.36602,-1.24905 -3.620599,-1.37395 -7.560666,-5.68314 -3.940067,-4.3092 -3.940067,-13.55211 v -4.74637 q 2.555713,-27.22913 22.575516,-39.96937 l -22.149566,2.49809 v -25.9801 H 100.7473 v 19.73488 l 19.1679,-2.49808 2.55572,2.24828 -12.7786,5.24597 q -14.908363,9.49273 -14.908363,16.73718 17.038133,-8.4935 40.891513,-7.74407 38.33579,2.49809 42.59532,23.48201 v 22.73258 q 0,1.62376 1.91679,3.1226 1.91679,1.49886 4.79197,2.56054 2.87519,1.06169 6.06984,1.81111 -13.63051,1.49886 -20.44576,1.49886 -4.89846,0 -6.70876,-0.24981 -1.8103,-0.24981 -4.36602,-1.24905 -3.62061,-1.37395 -5.21793,-3.1226 -1.59732,-1.74866 -1.59732,-4.37165 v -19.23526 q 0.42595,-17.98622 -17.46409,-19.48507 -20.0198,-1.24904 -31.94649,5.7456 -7.667157,4.74636 -10.222876,12.49042 -1.703813,4.99618 -1.703813,8.4935 0,3.99693 1.91679,7.49425 1.916789,3.49733 5.963345,6.30767 4.046554,2.81035 6.921744,3.87203 2.87518,1.06169 6.06983,1.81111 -13.630504,1.49886 -20.445755,1.49886 z"
         style="font-style:normal;font-variant:normal;font-weight:normal;font-stretch:normal;font-size:219.783px;line-height:125%;font-family:'DejaVu Sans';-inkscape-font-specification:'DejaVu Sans, Normal';font-variation-settings:normal;text-align:start;letter-spacing:60.7856px;word-spacing:0px;writing-mode:lr-tb;text-anchor:start;fill:#ffffff;fill-opacity:1;stroke:none;stroke-width:1.64722;stroke-linecap:butt;stroke-linejoin:miter;stroke-miterlimit:4;stroke-dasharray:none;stroke-dashoffset:0;stroke-opacity:1;marker:none;paint-order:markers stroke fill;stop-color:#000000;stop-opacity:1" /><g
         id="text4281"
         style="color:#000000;font-style:normal;font-variant:normal;font-weight:bold;font-stretch:normal;font-size:821.417px;line-height:125%;font-family:FreeSans;-inkscape-font-specification:'FreeSans Bold';font-variation-settings:normal;text-align:start;writing-mode:lr-tb;text-anchor:start;clip-rule:nonzero;display:inline;overflow:visible;visibility:visible;isolation:auto;mix-blend-mode:normal;color-interpolation:sRGB;color-interpolation-filters:linearRGB;solid-color:#000000;solid-opacity:1;fill:#ffffff;fill-opacity:1;fill-rule:nonzero;stroke:none;stroke-width:8.65843;stroke-linecap:butt;stroke-linejoin:miter;stroke-miterlimit:4;stroke-dasharray:none;stroke-dashoffset:0;stroke-opacity:1;marker:none;paint-order:markers stroke fill;color-rendering:auto;image-rendering:auto;shape-rendering:auto;text-rendering:auto;enable-background:accumulate;stop-color:#000000;stop-opacity:1"
         transform="matrix(0.23173094,-0.07505045,0,0.15618561,-264.43248,365.45106)"><path
           sodipodi:nodetypes="ccscccccscscccccsscccccsscccc"
           inkscape:connector-curvature="0"
           id="path4935"
           style="color:#000000;font-style:normal;font-variant:normal;font-weight:normal;font-stretch:normal;font-family:'Hammersmith One';-inkscape-font-specification:'Hammersmith One';font-variation-settings:normal;letter-spacing:62.3221px;word-spacing:0px;clip-rule:nonzero;display:inline;overflow:visible;visibility:visible;isolation:auto;mix-blend-mode:normal;color-interpolation:sRGB;color-interpolation-filters:linearRGB;solid-color:#000000;solid-opacity:1;fill:#ffffff;fill-opacity:1;fill-rule:nonzero;stroke:none;stroke-width:8.65843;stroke-linecap:butt;stroke-linejoin:miter;stroke-miterlimit:4;stroke-dasharray:none;stroke-dashoffset:0;stroke-opacity:1;marker:none;paint-order:markers stroke fill;color-rendering:auto;image-rendering:auto;shape-rendering:auto;text-rendering:auto;enable-background:accumulate;stop-color:#000000;stop-opacity:1"
           d="m 1658.1831,294.46324 c 8.5564,0.53477 15.9096,0.93585 22.0595,1.20324 6.4173,0.26739 12.1662,0.40109 17.2466,0.40109 15.2411,0 28.0758,-0.26739 38.5039,-0.80217 10.6955,-0.53477 18.1824,-1.33694 22.4606,-2.4065 l 137.8764,210.68534 126.4372,-210.68534 c 2.1391,0.53478 5.6151,1.06956 10.4281,1.60434 5.0804,0.26739 10.6956,0.53477 16.8455,0.80216 6.1499,0.26739 12.5673,0.53478 19.252,0.80217 h 18.4498 c 9.3586,0 17.1129,-0.1337 23.2628,-0.40109 6.4173,-0.26739 13.9042,-0.66847 22.4606,-1.20324 V 1007.313 h -32.0866 -23.2628 c -7.4869,0.2674 -14.3053,0.5348 -20.4552,0.8022 -6.1499,0.2674 -11.4977,0.5348 -16.0433,0.8021 -4.5456,0.2674 -8.0217,0.5348 -10.4282,0.8022 V 465.72557 l -132.0523,223.1189 -138.6785,-203.86693 v 346.93659 c -2.4065,-0.26739 -5.8826,-0.53478 -10.4282,-0.80217 -4.5456,-0.26739 -9.8934,-0.53478 -16.0433,-0.80217 -6.1499,-0.26739 -12.9683,-0.53477 -20.4552,-0.80216 h -23.2628 -32.0866 z" /></g></g><path
       style="color:#000000;font-variation-settings:normal;clip-rule:nonzero;opacity:1;fill:#ffffff;fill-opacity:1;fill-rule:nonzero;stroke:none;stroke-width:1.1873;stroke-linecap:butt;stroke-linejoin:miter;stroke-miterlimit:4;stroke-dasharray:none;stroke-dashoffset:0;stroke-opacity:1;marker:none;paint-order:markers stroke fill;stop-color:#000000;stop-opacity:1"
       d="m 168.47132,94.156861 c -1.36637,0.0066 -2.76692,0.16028 -4.11394,0.416302 -2.69406,0.512045 -5.13209,1.359395 -6.64993,2.821402 l 1.84518,1.916082 c 0.74731,-0.719814 2.91255,-1.671174 5.30105,-2.125139 2.38846,-0.45397 5.03725,-0.487193 6.81717,0 l 0.70353,-2.566897 c -1.20463,-0.329726 -2.53668,-0.468385 -3.90306,-0.46175 z"
       id="path2755" /></g><g
     id="g3891"
     transform="matrix(5.3865209,0,0,5.3865209,-172.96505,-328.45549)"><text
       id="text5138"
       y="329.44824"
       x="22.26256"
       style="font-style:normal;font-variant:normal;font-weight:bold;font-stretch:normal;font-size:5.5523px;line-height:0%;font-family:FreeSans;-inkscape-font-specification:'FreeSans Bold';text-align:start;writing-mode:lr-tb;text-anchor:start;fill:#000000;fill-opacity:1;stroke:#000000;stroke-width:0.592994;stroke-linecap:butt;stroke-linejoin:miter;stroke-miterlimit:4;stroke-dasharray:none;stroke-opacity:1"
       xml:space="preserve"><tspan
         id="tspan3851"
         dy="0 0 0 0 0 0 0 0 0 0 0 0 0 0 0 0 0 0 0 0 0 0 0 0 0 0 0 3.1395924"
         dx="0 0 0 0 0 0 0 0 0 0 0 0 0 0 0 0 -0.66115409 -2.1810975 -2.1810975 -0.33057705 -0.33057705 -1.2558374 -1.2558374 0 0 0 0 2.2456124e-08"
         style="font-size:57.166px;line-height:8.27548e+07;font-family:'DejaVu Sans';-inkscape-font-specification:'DejaVu Sans';letter-spacing:-1.9231;fill:#000000;stroke:#000000;stroke-width:0.592994"
         y="329.44824"
         x="22.26256"
         sodipodi:role="line"><tspan
           style="font-family:'DejaVu Sans';-inkscape-font-specification:'DejaVu Sans';letter-spacing:-1.9231;fill:#000000;stroke:#000000;stroke-width:0.592994"
           id="tspan3853"
           dy="0 0 0 0 0 0 0 0 0 0 0 0 0 0 0"
           dx="0 0 0 0 0 0 0 0 0 0 0 0 0 0 0"><tspan
             dx="0 0 0 0 0 0 0 0 -5.6464677 0 0 0 0 0 0"
             id="tspan5142"
             style="font-size:41.5764px;font-family:'DejaVu Sans';-inkscape-font-specification:'DejaVu Sans';fill:#000000;stroke:#000000;stroke-width:0.592994;stroke-linecap:butt;stroke-linejoin:miter;stroke-miterlimit:4;stroke-dasharray:none;stroke-opacity:1"
             dy="0 -6.5827308e-09 0 0 0 6.5827308e-09"><tspan
   style="font-size:29.6148px;stroke-width:0.592994"
   id="tspan3854">AddisMap</tspan>Transit</tspan></tspan></tspan></text></g></g></svg>
